<?xml version="1.0" encoding="UTF-8" standalone="no"?>
<svg width="223px" height="48px" viewBox="0 0 223 48" version="1.1" xmlns="http://www.w3.org/2000/svg" xmlns:xlink="http://www.w3.org/1999/xlink">
    <!-- Generator: Sketch 39 (31667) - http://www.bohemiancoding.com/sketch -->
    <title>zeta-producer-logo</title>
    <desc>Created with Sketch.</desc>
    <defs>
        <linearGradient x1="50%" y1="1.47391136%" x2="50%" y2="99.5356346%" id="linearGradient-1">
            <stop stop-color="#009AFF" offset="0%"></stop>
            <stop stop-color="#007FD2" offset="100%"></stop>
        </linearGradient>
    </defs>
    <g id="Normal" stroke="none" stroke-width="1" fill="none" fill-rule="evenodd">
        <g id="Logo-SVG-Outlines" transform="translate(-1.000000, 0.000000)">
            <path d="M117.204,34 L119.727,34 L119.727,26.17 C120.307,26.315 121.003,26.344 121.757,26.344 C124.222,26.344 126.397,25.619 127.731,24.198 C128.717,23.183 129.239,21.791 129.239,20.022 C129.239,18.282 128.601,16.861 127.528,15.933 C126.368,14.889 124.541,14.309 122.047,14.309 C120.017,14.309 118.422,14.483 117.204,14.686 L117.204,34 Z M119.727,16.513 C120.162,16.397 121.003,16.31 122.105,16.31 C124.889,16.31 126.716,17.557 126.716,20.138 C126.716,22.835 124.86,24.314 121.815,24.314 C120.974,24.314 120.278,24.256 119.727,24.111 L119.727,16.513 Z M132.081,34 L134.604,34 L134.604,26.518 C134.604,26.083 134.662,25.677 134.72,25.329 C135.068,23.415 136.344,22.052 138.142,22.052 C138.49,22.052 138.751,22.081 139.012,22.139 L139.012,19.732 C138.78,19.674 138.577,19.645 138.287,19.645 C136.576,19.645 135.039,20.834 134.401,22.719 L134.285,22.719 L134.198,19.964 L131.965,19.964 C132.052,21.269 132.081,22.69 132.081,24.343 L132.081,34 Z M147.219,19.645 C143.333,19.645 140.259,22.4 140.259,27.098 C140.259,31.535 143.188,34.319 146.987,34.319 C150.38,34.319 153.976,32.057 153.976,26.866 C153.976,22.574 151.25,19.645 147.219,19.645 L147.219,19.645 Z M147.161,21.559 C150.177,21.559 151.366,24.575 151.366,26.953 C151.366,30.114 149.539,32.405 147.103,32.405 C144.609,32.405 142.84,30.085 142.84,27.011 C142.84,24.343 144.145,21.559 147.161,21.559 L147.161,21.559 Z M166.765,13.41 L166.765,21.791 L166.707,21.791 C166.069,20.66 164.619,19.645 162.473,19.645 C159.051,19.645 156.151,22.516 156.18,27.185 C156.18,31.448 158.79,34.319 162.183,34.319 C164.474,34.319 166.185,33.13 166.968,31.564 L167.026,31.564 L167.142,34 L169.433,34 C169.346,33.043 169.317,31.622 169.317,30.375 L169.317,13.41 L166.765,13.41 Z M166.765,28.113 C166.765,28.519 166.736,28.867 166.649,29.215 C166.185,31.129 164.619,32.26 162.908,32.26 C160.153,32.26 158.761,29.911 158.761,27.069 C158.761,23.966 160.327,21.646 162.966,21.646 C164.88,21.646 166.272,22.98 166.649,24.604 C166.736,24.923 166.765,25.358 166.765,25.677 L166.765,28.113 Z M185.296,19.964 L182.744,19.964 L182.744,28.577 C182.744,29.041 182.657,29.505 182.512,29.882 C182.048,31.013 180.859,32.202 179.148,32.202 C176.828,32.202 176.016,30.404 176.016,27.736 L176.016,19.964 L173.464,19.964 L173.464,28.171 C173.464,33.101 176.103,34.319 178.307,34.319 C180.801,34.319 182.28,32.84 182.947,31.709 L183.005,31.709 L183.15,34 L185.412,34 C185.325,32.898 185.296,31.622 185.296,30.172 L185.296,19.964 Z M199.1,31.564 C198.375,31.883 197.418,32.26 195.968,32.26 C193.184,32.26 191.096,30.259 191.096,27.011 C191.096,24.082 192.836,21.704 196.055,21.704 C197.447,21.704 198.404,22.023 199.013,22.371 L199.593,20.399 C198.897,20.051 197.563,19.674 196.055,19.674 C191.473,19.674 188.515,22.806 188.515,27.127 C188.515,31.419 191.27,34.29 195.504,34.29 C197.389,34.29 198.868,33.826 199.535,33.478 L199.1,31.564 Z M213.629,27.446 C213.658,27.185 213.716,26.779 213.716,26.257 C213.716,23.676 212.498,19.645 207.916,19.645 C203.827,19.645 201.333,22.98 201.333,27.214 C201.333,31.448 203.914,34.29 208.235,34.29 C210.468,34.29 212.005,33.826 212.904,33.42 L212.469,31.593 C211.512,31.999 210.41,32.318 208.583,32.318 C206.031,32.318 203.827,30.897 203.769,27.446 L213.629,27.446 Z M203.798,25.619 C204.001,23.85 205.132,21.472 207.713,21.472 C210.584,21.472 211.28,23.995 211.251,25.619 L203.798,25.619 Z M216.877,34 L219.4,34 L219.4,26.518 C219.4,26.083 219.458,25.677 219.516,25.329 C219.864,23.415 221.14,22.052 222.938,22.052 C223.286,22.052 223.547,22.081 223.808,22.139 L223.808,19.732 C223.576,19.674 223.373,19.645 223.083,19.645 C221.372,19.645 219.835,20.834 219.197,22.719 L219.081,22.719 L218.994,19.964 L216.761,19.964 C216.848,21.269 216.877,22.69 216.877,24.343 L216.877,34 Z" id="Producer" fill="#333333"></path>
            <polygon id="Aussen" fill="url(#linearGradient-1)" points="60 48 108 48 108 0 60 0"></polygon>
            <polygon id="Innen" fill="#333333" points="75 34 94 34 94 15 75 15"></polygon>
            <path d="M0.87,34 L15.138,34 L15.138,31.883 L4.205,31.883 L4.205,31.796 L14.993,15.991 L14.993,14.454 L1.798,14.454 L1.798,16.571 L11.716,16.571 L11.716,16.658 L0.87,32.521 L0.87,34 Z M29.087,27.446 C29.116,27.185 29.174,26.779 29.174,26.257 C29.174,23.676 27.956,19.645 23.374,19.645 C19.285,19.645 16.791,22.98 16.791,27.214 C16.791,31.448 19.372,34.29 23.693,34.29 C25.926,34.29 27.463,33.826 28.362,33.42 L27.927,31.593 C26.97,31.999 25.868,32.318 24.041,32.318 C21.489,32.318 19.285,30.897 19.227,27.446 L29.087,27.446 Z M19.256,25.619 C19.459,23.85 20.59,21.472 23.171,21.472 C26.042,21.472 26.738,23.995 26.709,25.619 L19.256,25.619 Z M32.915,16.6 L32.915,19.964 L30.74,19.964 L30.74,21.907 L32.915,21.907 L32.915,29.563 C32.915,31.216 33.176,32.463 33.901,33.217 C34.51,33.913 35.467,34.29 36.656,34.29 C37.642,34.29 38.425,34.145 38.918,33.942 L38.802,32.028 C38.483,32.115 37.99,32.202 37.323,32.202 C35.902,32.202 35.409,31.216 35.409,29.476 L35.409,21.907 L39.063,21.907 L39.063,19.964 L35.409,19.964 L35.409,15.933 L32.915,16.6 Z M52.026,34 C51.852,33.043 51.794,31.854 51.794,30.636 L51.794,25.387 C51.794,22.574 50.75,19.645 46.458,19.645 C44.689,19.645 43.007,20.138 41.847,20.892 L42.427,22.574 C43.413,21.936 44.776,21.53 46.081,21.53 C48.952,21.53 49.271,23.618 49.271,24.778 L49.271,25.068 C43.848,25.039 40.832,26.895 40.832,30.288 C40.832,32.318 42.282,34.319 45.124,34.319 C47.125,34.319 48.633,33.333 49.416,32.231 L49.503,32.231 L49.706,34 L52.026,34 Z M49.329,29.273 C49.329,29.534 49.271,29.824 49.184,30.085 C48.778,31.274 47.618,32.434 45.791,32.434 C44.486,32.434 43.384,31.651 43.384,29.998 C43.384,27.272 46.545,26.779 49.329,26.837 L49.329,29.273 Z" id="Zeta" fill="#333333"></path>
        </g>
    </g>
</svg>